<svg id="Layer_1" data-name="Layer 1" xmlns="http://www.w3.org/2000/svg" viewBox="0 0 90 90"><defs><style>.cls-1{fill:#fff;}</style></defs><path class="cls-1" d="M152,86.33a4.34,4.34,0,0,1,3.95,2.6l7.37,15.57a12.46,12.46,0,0,0,9.36,7l16.49,2.5a4.45,4.45,0,0,1,3.56,3.11,4.94,4.94,0,0,1-1.13,5.1l-11.94,12.11a13,13,0,0,0-3.52,11.23l2.82,17.1a4.91,4.91,0,0,1-1.07,4,4.37,4.37,0,0,1-3.29,1.6,4.13,4.13,0,0,1-2-.54l-14.75-8.07a12.12,12.12,0,0,0-11.68,0l-14.75,8.07a4.13,4.13,0,0,1-2,.54,4.37,4.37,0,0,1-3.29-1.6,4.91,4.91,0,0,1-1.07-4l2.82-17.1a13,13,0,0,0-3.52-11.23L112.4,122.25a4.94,4.94,0,0,1-1.13-5.1,4.45,4.45,0,0,1,3.56-3.11l16.49-2.5a12.46,12.46,0,0,0,9.36-7l7.37-15.57a4.34,4.34,0,0,1,3.95-2.6m0-4a8.3,8.3,0,0,0-7.56,4.89l-7.37,15.56a8.5,8.5,0,0,1-6.35,4.81l-16.49,2.49c-6.92,1-9.68,9.9-4.67,15l11.93,12.11a9,9,0,0,1,2.42,7.77L121.1,162a8.69,8.69,0,0,0,8.3,10.29,8.1,8.1,0,0,0,3.93-1l14.75-8.08a8.18,8.18,0,0,1,7.84,0l14.75,8.08a8.1,8.1,0,0,0,3.93,1A8.69,8.69,0,0,0,182.9,162l-2.81-17.1a9,9,0,0,1,2.42-7.77l11.93-12.11c5-5.08,2.25-13.93-4.67-15l-16.49-2.49a8.5,8.5,0,0,1-6.35-4.81l-7.37-15.56A8.3,8.3,0,0,0,152,82.33Z" transform="translate(-107 -82.33)"/></svg>